<svg xmlns="http://www.w3.org/2000/svg" viewBox="0 0 180 180"><path d="M35.47,50.59H49.59l8.89,26.13,8.9-26.13H81.61L68.15,86.5l10,25.23,22.35-61.36h16.67L85.06,129.3H72.15L58.48,96.17,44.8,129.3H31.91L0,50.37H16.46l22.45,61.36L48.69,86.5Z" style="fill:#2196f3"/><path d="M170.44,71.05a19,19,0,0,0-2.84-2.11,33.3,33.3,0,0,0-5-2.62,44.73,44.73,0,0,0-6.39-2.17,28.13,28.13,0,0,0-7-.89q-6.33,0-9.45,2.34a7.74,7.74,0,0,0-3.11,6.56,6.69,6.69,0,0,0,1.16,4,10,10,0,0,0,3.4,2.84,28.3,28.3,0,0,0,5.61,2.23q3.39,1,7.84,2.11,5.78,1.56,10.5,3.33a28.63,28.63,0,0,1,8,4.45,18.52,18.52,0,0,1,5.06,6.39,21.28,21.28,0,0,1,1.78,9.18,22.83,22.83,0,0,1-2.4,10.84,19.94,19.94,0,0,1-6.44,7.27,27.81,27.81,0,0,1-9.34,4.06,47,47,0,0,1-11.06,1.28,59.35,59.35,0,0,1-17.57-2.67A54.19,54.19,0,0,1,117.63,120l6.78-13.23a20.83,20.83,0,0,0,3.61,2.6,53.57,53.57,0,0,0,6.17,3.23,48.58,48.58,0,0,0,7.89,2.73,35.81,35.81,0,0,0,8.9,1.11q12.68,0,12.67-8.12a6.68,6.68,0,0,0-1.44-4.34,12.38,12.38,0,0,0-4.11-3.11,39.66,39.66,0,0,0-6.45-2.44c-2.52-.75-5.34-1.56-8.46-2.45a72.92,72.92,0,0,1-9.83-3.39,26.09,26.09,0,0,1-7-4.33,16.37,16.37,0,0,1-4.17-5.78,20.22,20.22,0,0,1-1.39-7.85,24.59,24.59,0,0,1,2.22-10.67,21.84,21.84,0,0,1,6.17-7.79,28.21,28.21,0,0,1,9.18-4.72,38.06,38.06,0,0,1,11.23-1.61A43.42,43.42,0,0,1,165,52.43a56.5,56.5,0,0,1,12.22,6.17Z" style="fill:#212121"/></svg>